<svg width="32.000000" height="32.000000" viewBox="0 0 32 32" fill="none" xmlns="http://www.w3.org/2000/svg" xmlns:xlink="http://www.w3.org/1999/xlink">
	<desc>
			Created with Pixso.
	</desc>
	<defs>
		<clipPath id="clip177855_5">
			<rect rx="-0.500000" width="15.000000" height="15.000000" transform="translate(8.500000 8.500000)" fill="white" fill-opacity="0"/>
		</clipPath>
	</defs>
	<rect rx="7.000000" width="32.000000" height="32.000000" fill="#FFFFFF" fill-opacity="1.000000"/>
	<rect x="0.500000" y="0.500000" rx="7.000000" width="31.000000" height="31.000000" stroke="#F8F8F8" stroke-opacity="1.000000" stroke-width="1.000000"/>
	<rect rx="-0.500000" width="13.400000" height="11.799999" transform="translate(9.033325 10.099976)" fill="#FFFFFF" fill-opacity="0"/>
	<rect rx="-0.500000" width="15.000000" height="15.000000" transform="translate(8.500000 8.500000)" fill="#FFFFFF" fill-opacity="0"/>
	<g clip-path="url(#clip177855_5)">
		<path d="M20.67 10.27C20.22 10.09 19.74 10 19.26 10C18.78 10 18.3 10.09 17.86 10.27C17.41 10.46 17.01 10.73 16.67 11.07L15.96 11.78L15.26 11.07C14.57 10.38 13.64 10 12.66 10C11.69 10 10.76 10.38 10.07 11.07C9.38 11.76 9 12.69 9 13.66C9 14.64 9.38 15.57 10.07 16.26L10.78 16.96L15.96 22.15L21.15 16.96L21.86 16.26C22.2 15.92 22.47 15.51 22.65 15.07C22.84 14.62 22.93 14.14 22.93 13.66C22.93 13.18 22.84 12.7 22.65 12.26C22.47 11.81 22.2 11.41 21.86 11.07C21.52 10.73 21.11 10.46 20.67 10.27Z" stroke="#EAEAEA" stroke-opacity="1.000000" stroke-width="1.200000" stroke-linejoin="round"/>
	</g>
</svg>
